# xmcd
#
# Track frame offsets: 
#        150
#        17745
#        40867
#        62737
#        86560
#        107400
#        133220
#        167515
#        183990
#        205640
#        226747
#
# Disc length: 3277 seconds
#
# Revision: 4
# Processed by: cddbd v1.5.2PL0 Copyright (c) Steve Scherf et al.
# Submitted via: ExactAudioCopyFreeDBPlugin 1.0
#
DISCID=830ccb0b
DTITLE=夏韶聲 - A change is gonna come
DYEAR=1999
DGENRE=Blues
TTITLE0=Come on in my kitchen
TTITLE1=Take time to know her
TTITLE2=Bring it on home to me
TTITLE3=You've lost that lovin' feeling
TTITLE4=You are so beautiful
TTITLE5=Have you seen her
TTITLE6=A change is gonna come
TTITLE7=People get ready
TTITLE8=Dreams I dream of you
TTITLE9=Proud Mary
TTITLE10=Now and then
EXTD=
EXTT0=
EXTT1=
EXTT2=
EXTT3=
EXTT4=
EXTT5=
EXTT6=
EXTT7=
EXTT8=
EXTT9=
EXTT10=
PLAYORDER=
